<svg width="28" height="24" viewBox="0 0 28 24" fill="none" xmlns="http://www.w3.org/2000/svg">
<path d="M1.61915 12.4154C1.33089 10.3015 1.18676 9.24454 1.78451 8.55975C2.38226 7.87495 3.449 7.87495 5.58247 7.87495L22.5425 7.87495C24.676 7.87495 25.7427 7.87495 26.3405 8.55975C26.9382 9.24454 26.7941 10.3015 26.5058 12.4154L25.5342 19.5404C25.3094 21.1891 25.197 22.0135 24.6319 22.5067C24.0668 23 23.2349 23 21.5709 23H6.55406C4.89014 23 4.05818 23 3.49307 22.5067C2.92797 22.0135 2.81556 21.1891 2.59074 19.5404L1.61915 12.4154Z" stroke="white" stroke-opacity="0.75" stroke-width="2"/>
<path d="M20.9375 7.875V5C20.9375 3.11439 20.9375 2.17158 20.3517 1.58579C19.7659 1.00001 18.8231 1.00001 16.9375 1L11.1875 1C9.30188 1 8.35907 1 7.77329 1.58579C7.1875 2.17157 7.1875 3.11438 7.1875 5V7.875" stroke="white" stroke-opacity="0.75" stroke-width="2"/>
</svg>
