<svg width="22" height="24" viewBox="0 0 22 24" fill="none" xmlns="http://www.w3.org/2000/svg">
<path d="M3.62499 7.99999C3.625 4.134 6.759 1 10.625 1V1C14.491 1 17.625 4.13401 17.625 8.00001V10.6549C17.625 10.8273 17.6624 10.9978 17.7347 11.1544L19.0694 14.0462C19.7303 15.4781 20.0607 16.1941 19.9802 16.7747C19.9 17.3535 19.5706 17.8682 19.0788 18.1836C18.5854 18.5 17.7968 18.5 16.2197 18.5H10.625H5.03034C3.4532 18.5 2.66463 18.5 2.17119 18.1836C1.67935 17.8682 1.35003 17.3535 1.26977 16.7747C1.18925 16.1941 1.5197 15.4781 2.18061 14.0461L3.51527 11.1544C3.58755 10.9978 3.62498 10.8273 3.62498 10.6549L3.62499 7.99999Z" stroke="white" stroke-width="2"/>
<path d="M7.125 22.5834L8.32341 22.7831C9.84729 23.0371 11.4027 23.0371 12.9266 22.7831L14.125 22.5834" stroke="white" stroke-width="2" stroke-linecap="round"/>
</svg>
