<svg width="18" height="16" viewBox="0 0 18 16" fill="none" xmlns="http://www.w3.org/2000/svg">
<path d="M15.2703 11H6.57565C5.77113 11 5.36888 11 5.08974 10.765C4.81059 10.53 4.74203 10.1336 4.60491 9.34089L3.44914 2.65912C3.31202 1.86638 3.24346 1.47001 2.96432 1.23501C2.68518 1 2.28292 1 1.47841 1H1M3.47105 2.67568L13.3618 2.66992C14.4013 2.66932 14.921 2.66901 15.3025 2.83465C15.9076 3.09728 16.3442 3.64135 16.4697 4.28889C16.5488 4.69727 16.436 5.2046 16.2104 6.21927V6.21927C16.0589 6.90082 15.9831 7.24159 15.8256 7.51123C15.5766 7.93773 15.1786 8.25699 14.7082 8.40754C14.4108 8.50271 14.0617 8.50271 13.3635 8.50271H4.45993" stroke="white" stroke-width="1.3" stroke-linecap="round" stroke-linejoin="round"/>
<path d="M16 14.5C16 15.3284 15.3553 16 14.56 16C13.7647 16 13.12 15.3284 13.12 14.5C13.12 13.6716 13.7647 13 14.56 13C15.3553 13 16 13.6716 16 14.5Z" fill="white"/>
<path d="M6.88 14.5C6.88 15.3284 6.23529 16 5.44 16C4.64471 16 4 15.3284 4 14.5C4 13.6716 4.64471 13 5.44 13C6.23529 13 6.88 13.6716 6.88 14.5Z" fill="white"/>
</svg>
