<svg width="23" height="25" viewBox="0 0 23 25" fill="none" xmlns="http://www.w3.org/2000/svg">
<path d="M2.16666 10.3333V19.1667C2.16666 21.0523 2.16666 21.9951 2.75244 22.5809C3.33823 23.1667 4.28104 23.1667 6.16665 23.1667H16.8333C18.7189 23.1667 19.6617 23.1667 20.2475 22.5809C20.8333 21.9951 20.8333 21.0523 20.8333 19.1667V10.3333" stroke="white" stroke-width="2"/>
<path d="M1 11.5L8.67157 3.82843C10.0049 2.49509 10.6716 1.82843 11.5 1.82843C12.3284 1.82843 12.9951 2.49509 14.3284 3.82843L22 11.5" stroke="white" stroke-width="2" stroke-linecap="round"/>
<path d="M8 18.5C8 17.0955 8 16.3933 8.33706 15.8889C8.48298 15.6705 8.67048 15.483 8.88886 15.3371C9.39331 15 10.0955 15 11.5 15C12.9045 15 13.6067 15 14.1111 15.3371C14.3295 15.483 14.517 15.6705 14.6629 15.8889C15 16.3933 15 17.0955 15 18.5V23.1667H8V18.5Z" fill="white"/>
<path d="M16.1667 3.91667C16.1667 3.21444 16.1667 2.86332 16.3352 2.6111C16.4081 2.50191 16.5019 2.40816 16.6111 2.3352C16.8633 2.16667 17.2144 2.16667 17.9167 2.16667C18.6189 2.16667 18.97 2.16667 19.2222 2.3352C19.3314 2.40816 19.4252 2.50191 19.4981 2.6111C19.6667 2.86332 19.6667 3.21444 19.6667 3.91667V10.3333L16.1667 6.25V3.91667Z" fill="white"/>
</svg>
