<svg width="21" height="24" viewBox="0 0 21 24" fill="none" xmlns="http://www.w3.org/2000/svg">
<path d="M19.125 23L19.125 20.3294C19.125 19.3528 19.125 18.8645 19.0124 18.4651C18.729 17.4605 17.9439 16.6754 16.9393 16.3921C16.5399 16.2794 16.0516 16.2794 15.075 16.2794H5.175C4.19837 16.2794 3.71005 16.2794 3.31068 16.3921C2.30608 16.6754 1.52096 17.4605 1.23764 18.4651C1.125 18.8645 1.125 19.3528 1.125 20.3294L1.125 23M15.765 5.96653C15.765 8.70947 13.5085 10.9331 10.725 10.9331C7.94149 10.9331 5.685 8.70947 5.685 5.96653C5.685 3.22359 7.94149 1 10.725 1C13.5085 1 15.765 3.22359 15.765 5.96653Z" stroke="white" stroke-width="2" stroke-linecap="round" stroke-linejoin="round"/>
</svg>
