<svg width="28" height="29" viewBox="0 0 28 29" fill="none" xmlns="http://www.w3.org/2000/svg">
<path d="M23.8581 26.7595L13.0737 15.9149C12.2964 15.1332 12.2981 13.8699 13.0776 13.0904L13.1424 13.0256C13.9312 12.2368 15.2129 12.2458 15.9905 13.0456L26.6528 24.0114C27.3999 24.7797 27.3913 26.0056 26.6335 26.7634C25.8667 27.5302 24.6228 27.5285 23.8581 26.7595Z" stroke="#848484" stroke-linecap="round"/>
<path d="M20.9253 19.8647C20.6325 19.5718 20.1576 19.5718 19.8647 19.8647C19.5718 20.1576 19.5718 20.6325 19.8647 20.9253L20.9253 19.8647ZM19.8647 20.9253L25.6832 26.7439L26.7439 25.6832L20.9253 19.8647L19.8647 20.9253Z" fill="#848484"/>
<path d="M11.0036 1V5.28732M8.85999 3.14366H13.1473" stroke="#848484" stroke-width="0.8" stroke-linecap="round"/>
<path d="M3.14366 7.43103V11.7184M1 9.57469H5.28732" stroke="#848484" stroke-width="0.8" stroke-linecap="round"/>
<path d="M6.00177 21.722V27.4385M3.14355 24.5803H8.85998" stroke="#848484" stroke-linecap="round"/>
<path d="M24.5803 3.14362V8.86005M21.722 6.00183H27.4385" stroke="#848484" stroke-linecap="round"/>
</svg>
